<svg width="132" height="114" viewBox="0 0 132 114" fill="none" xmlns="http://www.w3.org/2000/svg">
<path d="M19.9709 16.4227C21.6869 7.47166 29.517 1 38.6311 1H108.061C119.907 1 128.865 11.7223 126.758 23.3796L113.382 97.3796C111.748 106.423 103.875 113 94.6851 113H24.4445C12.5165 113 3.53849 102.137 5.78432 90.4226L19.9709 16.4227Z" fill="#D64933" stroke="#D7D4A1" stroke-width="2"/>
<line x1="2.5" y1="-2.5" x2="48.7013" y2="-2.5" transform="matrix(0.503463 0.864017 -0.772308 0.635248 15.998 64.6562)" stroke="#D7D4A1" stroke-width="5" stroke-linecap="round"/>
<line x1="2.5" y1="-2.5" x2="83.8175" y2="-2.5" transform="matrix(0.497736 0.867329 -0.777038 0.629454 23.1592 34.0298)" stroke="#D7D4A1" stroke-width="5" stroke-linecap="round"/>
<line x1="2.5" y1="-2.5" x2="110.139" y2="-2.5" transform="matrix(0.508565 0.861024 -0.768062 0.640376 33.1846 11.9104)" stroke="#D7D4A1" stroke-width="5" stroke-linecap="round"/>
<path d="M81.875 30.627L86.3459 29.6184L90.7799 27.606L94.1256 24.2819L96.7579 20.418L97.3171 26.2092L98.8543 30.3005L101.068 33.9277L104.635 36.6269L99.6379 37.4815L95.8803 39.0299L92.5346 42.354L89.7516 46.8358L90.244 41.3524L89.1958 36.4112L86.4932 33.6339L81.875 30.627Z" fill="#D7D4A1"/>
</svg>
