<svg width="166" height="106" viewBox="0 0 166 106" fill="none" xmlns="http://www.w3.org/2000/svg">
<path d="M151.253 75.1757H106.732C106.18 75.1757 105.732 74.728 105.732 74.1757V73.5177C105.732 72.9654 106.18 72.5177 106.732 72.5177H151.317C154.283 72.5177 156.836 71.831 158.976 70.4578C161.116 69.0845 162.186 67.3789 162.186 65.3411C162.186 63.3033 161.116 61.5978 158.976 60.2245C156.836 58.8512 154.283 58.1645 151.317 58.1645L139.976 58.1114C139.219 58.1078 139.08 57.0307 139.812 56.8355V63.1313C139.812 63.1868 139.816 63.2423 139.826 63.297L140.067 64.7305C140.201 65.5298 139.379 66.1485 138.648 65.7979L137.215 65.1103C137.167 65.087 137.12 65.0599 137.076 65.0291L126.497 57.656C125.926 57.258 125.926 56.4131 126.497 56.0151L137.032 48.6726C137.105 48.6216 137.185 48.5806 137.269 48.5508L138.477 48.1212C139.128 47.8897 139.812 48.3725 139.812 49.0634V50.4564V56.8355C139.009 56.6884 139.117 55.5065 139.933 55.5065H151.253C155.279 55.5065 158.743 56.4516 161.646 58.3417C164.549 60.2319 166 62.565 166 65.3411C166 68.1172 164.549 70.4504 161.646 72.3405C158.743 74.2306 155.279 75.1757 151.253 75.1757Z" fill="#D7D4A1"/>
<path d="M14.7467 45.5291H59.2676C59.8199 45.5291 60.2676 45.9769 60.2676 46.5291V47.1871C60.2676 47.7394 59.8199 48.1871 59.2676 48.1871H14.6832C11.7169 48.1871 9.16376 48.8738 7.0238 50.2471C4.88383 51.6204 3.81384 53.3259 3.81384 55.3637C3.81384 57.4015 4.88383 59.1071 7.0238 60.4804C9.16376 61.8536 11.7169 62.5403 14.6832 62.5403L26.024 62.5934C26.7814 62.597 26.92 63.6741 26.1882 63.8693V57.5736C26.1882 57.518 26.1835 57.4626 26.1743 57.4078L25.9334 55.9743C25.799 55.175 26.6215 54.5563 27.3522 54.907L28.785 55.5946C28.8335 55.6178 28.88 55.645 28.9241 55.6757L39.5035 63.0489C40.0744 63.4468 40.0744 64.2918 39.5035 64.6897L28.968 72.0323C28.8949 72.0832 28.8153 72.1242 28.7313 72.1541L27.5232 72.5836C26.8722 72.8151 26.1882 72.3324 26.1882 71.6414V70.2485V63.8693C26.9906 64.0165 26.8831 65.1983 26.0673 65.1983H14.7467C10.7211 65.1983 7.25686 64.2532 4.35413 62.3631C1.4514 60.473 3.43323e-05 58.1398 3.43323e-05 55.3637C3.43323e-05 52.5876 1.4514 50.2545 4.35413 48.3643C7.25686 46.4742 10.7211 45.5291 14.7467 45.5291Z" fill="#D7D4A1"/>
<path d="M43.3496 41.4703V35.588C43.3496 24.9018 46.8652 16.2989 53.8964 9.77934C60.9276 3.25978 70.8048 0 83.528 0C96.2511 0 106.128 3.25978 113.16 9.77934C120.191 16.2989 123.706 24.9018 123.706 35.588V41.4703H43.3496ZM46.2195 37.5709H83.528H120.836C123.706 25.6165 114.183 14.8125 107.922 10.2537C101.661 5.69493 93.4386 3.41553 83.528 3.41553C73.6173 3.41553 65.4979 5.69493 59.1698 10.2537C52.8417 14.8125 44.6166 25.2272 46.2195 37.5709ZM43.3496 67.3524V58.529C45.5594 58.529 47.4846 57.4505 49.1252 55.2937C50.7659 53.1368 53.3942 52.0584 57.0103 52.0584C60.6263 52.0584 63.0203 53.1368 64.1921 55.2937C65.364 57.4505 67.3227 58.529 70.0682 58.529C72.8137 58.529 74.8394 57.4505 76.1452 55.2937C77.451 53.1368 79.9119 52.0584 83.528 52.0584C87.144 52.0584 89.6049 53.1368 90.9107 55.2937C92.2165 57.4505 94.2422 58.529 96.9877 58.529C99.7332 58.529 101.692 57.4505 102.864 55.2937C104.036 53.1368 106.43 52.0584 110.046 52.0584C113.662 52.0584 116.29 53.1368 117.931 55.2937C119.571 57.4505 121.497 58.529 123.706 58.529V67.3524C120.09 67.3524 117.596 66.274 116.223 64.1171C114.85 61.9603 112.791 60.8819 110.046 60.8819C107.3 60.8819 105.341 61.9603 104.17 64.1171C102.998 66.274 100.604 67.3524 96.9877 67.3524C93.3717 67.3524 90.9107 66.274 89.6049 64.1171C88.2991 61.9603 86.2735 60.8819 83.528 60.8819C80.7824 60.8819 78.7568 61.9603 77.451 64.1171C76.1452 66.274 73.6843 67.3524 70.0682 67.3524C66.4522 67.3524 64.0582 66.274 62.8863 64.1171C61.7145 61.9603 59.7558 60.8819 57.0103 60.8819C54.2647 60.8819 52.2056 61.9603 50.8328 64.1171C49.4601 66.274 46.9657 67.3524 43.3496 67.3524ZM49.3764 105.882C47.7692 105.882 46.363 104.999 45.1576 103.234C43.9523 101.47 43.3496 99.411 43.3496 97.0581V78.2347H123.706V97.0581C123.706 99.411 123.104 101.47 121.898 103.234C120.693 104.999 119.287 105.882 117.68 105.882H49.3764ZM49.3764 102.466H83.528H117.68H119.402L120.836 100.758V98.1966V92.2194V81.9728H83.528H46.2195V92.2194V98.1966V99.9044V100.758L47.6544 102.466H49.3764Z" fill="#D7D4A1"/>
<path d="M120.836 81.9728H83.528H46.2195V92.2194V98.1966V99.9044V100.758L47.6544 102.466H49.3764H83.528H117.68H119.402L120.836 100.758V98.1966V92.2194V81.9728Z" fill="#D64933"/>
<path d="M120.836 37.5709C123.706 25.6165 114.183 14.8125 107.922 10.2537C101.661 5.69493 93.4386 3.41553 83.528 3.41553C73.6173 3.41553 65.4979 5.69493 59.1698 10.2537C52.8417 14.8125 44.6166 25.2272 46.2195 37.5709H83.528H120.836Z" fill="#D64933"/>
</svg>
