<svg width="138" height="129" viewBox="0 0 138 129" fill="none" xmlns="http://www.w3.org/2000/svg">
<path d="M60.0838 54.741L60.0879 54.7127L60.0903 54.6842L60.6852 47.8425C60.7207 47.4344 60.7248 47.0243 60.6975 46.6156L60.0919 37.5613L60.09 37.533L60.0865 37.5048L58.8041 27.181L58.8034 27.1755L56.8799 10.9519L56.8796 10.9493L56.5018 7.69096C56.0887 4.12733 58.8744 1 62.4619 1H131C134.314 1 137 3.68629 137 7V88.9146C137 92.2283 134.314 94.9146 131 94.9146H62.1787C58.6786 94.9146 55.9215 91.9311 56.1973 88.4418L56.8819 79.7813L58.8026 63.5818L60.0838 54.741Z" fill="#D64933" stroke="#D7D4A1" stroke-width="2"/>
<ellipse cx="73.2074" cy="19.9207" rx="4.49058" ry="5.16463" fill="#D7D4A1"/>
<ellipse cx="73.2074" cy="47.9571" rx="4.49058" ry="5.16463" fill="#D7D4A1"/>
<ellipse cx="73.2074" cy="75.994" rx="4.49058" ry="5.16463" fill="#D7D4A1"/>
<ellipse cx="96.3011" cy="75.994" rx="4.49058" ry="5.16463" fill="#D7D4A1"/>
<ellipse cx="119.396" cy="75.994" rx="4.49058" ry="5.16463" fill="#D7D4A1"/>
<ellipse cx="96.3011" cy="47.9571" rx="4.49058" ry="5.16463" fill="#D7D4A1"/>
<ellipse cx="119.396" cy="47.9571" rx="4.49058" ry="5.16463" fill="#D7D4A1"/>
<ellipse cx="96.3011" cy="19.9207" rx="4.49058" ry="5.16463" fill="#D7D4A1"/>
<ellipse cx="119.396" cy="19.9207" rx="4.49058" ry="5.16463" fill="#D7D4A1"/>
<g filter="url(#filter0_d_163_347)">
<path d="M40.8396 79.8267L40.8437 79.7984L40.8462 79.7699L41.4411 72.9282C41.4766 72.5201 41.4806 72.11 41.4533 71.7013L40.8477 62.647L40.8458 62.6187L40.8423 62.5905L39.56 52.2667L39.5593 52.2612L37.6357 36.0376L37.6354 36.035L37.2577 32.7766C36.8446 29.213 39.6303 26.0857 43.2178 26.0857H111.756C115.07 26.0857 117.756 28.772 117.756 32.0857V114C117.756 117.314 115.07 120 111.756 120H42.9345C39.4344 120 36.6774 117.017 36.9532 113.528L37.6377 104.867L39.5585 88.6675L40.8396 79.8267Z" fill="#D64933" stroke="#D7D4A1" stroke-width="2"/>
<ellipse cx="53.9632" cy="45.0062" rx="4.49058" ry="5.16463" fill="#D7D4A1"/>
<ellipse cx="53.9632" cy="73.0428" rx="4.49058" ry="5.16463" fill="#D7D4A1"/>
<ellipse cx="53.9632" cy="101.079" rx="4.49058" ry="5.16463" fill="#D7D4A1"/>
<ellipse cx="77.058" cy="101.079" rx="4.49058" ry="5.16463" fill="#D7D4A1"/>
<ellipse cx="100.153" cy="101.079" rx="4.49058" ry="5.16463" fill="#D7D4A1"/>
<ellipse cx="77.058" cy="73.0428" rx="4.49058" ry="5.16463" fill="#D7D4A1"/>
<ellipse cx="100.153" cy="73.0428" rx="4.49058" ry="5.16463" fill="#D7D4A1"/>
<ellipse cx="77.058" cy="45.0062" rx="4.49058" ry="5.16463" fill="#D7D4A1"/>
<ellipse cx="100.153" cy="45.0062" rx="4.49058" ry="5.16463" fill="#D7D4A1"/>
</g>
<path d="M2 60.5264C3.92453 51.6728 11.5154 44.7927 19.5819 44.3044C25.0621 43.9727 30.3628 45.9517 35.3002 48.6017C39.2841 50.7399 42.7055 54.015 46.6533 56.1944C51.1522 58.678 53.5418 59.3677 58.453 59.7893C60.0113 59.923 64.3515 60.1216 65.8926 59.7893C66.4978 59.6587 70.1923 58.006 70.6417 57.5752C73.4991 54.8367 74.4618 54.3073 75.9343 50.017C76.4433 48.5339 76.872 47.0606 77.2996 45.5853" stroke="#D7D4A1" stroke-width="3" stroke-linecap="round"/>
<path d="M2 90.0389C3.92453 81.1852 11.5154 74.3051 19.5819 73.8169C25.0621 73.4851 30.3628 75.4642 35.3002 78.1142C39.2841 80.2524 42.7055 83.5274 46.6533 85.7068C51.1522 88.1904 53.5418 88.8802 58.453 89.3017C60.0113 89.4354 64.3515 89.634 65.8926 89.3017C66.4978 89.1712 70.1923 87.5185 70.6417 87.0877C73.4991 84.3491 74.4618 83.8198 75.9343 79.5294C76.4433 78.0463 76.872 76.573 77.2996 75.0978" stroke="#D7D4A1" stroke-width="3" stroke-linecap="round"/>
<path d="M2 118.076C3.92453 109.222 11.5154 102.342 19.5819 101.853C25.0621 101.522 30.3628 103.501 35.3002 106.151C39.2841 108.289 42.7055 111.564 46.6533 113.743C51.1522 116.227 53.5418 116.917 58.453 117.338C60.0113 117.472 64.3515 117.671 65.8926 117.338C66.4978 117.208 70.1923 115.555 70.6417 115.124C73.4991 112.386 74.4618 111.856 75.9343 107.566C76.4433 106.083 76.872 104.61 77.2996 103.134" stroke="#D7D4A1" stroke-width="3" stroke-linecap="round"/>
<defs>
<filter id="filter0_d_163_347" x="35.9336" y="25.0857" width="90.8223" height="103.915" filterUnits="userSpaceOnUse" color-interpolation-filters="sRGB">
<feFlood flood-opacity="0" result="BackgroundImageFix"/>
<feColorMatrix in="SourceAlpha" type="matrix" values="0 0 0 0 0 0 0 0 0 0 0 0 0 0 0 0 0 0 127 0" result="hardAlpha"/>
<feOffset dx="4" dy="4"/>
<feGaussianBlur stdDeviation="2"/>
<feComposite in2="hardAlpha" operator="out"/>
<feColorMatrix type="matrix" values="0 0 0 0 0 0 0 0 0 0 0 0 0 0 0 0 0 0 0.25 0"/>
<feBlend mode="normal" in2="BackgroundImageFix" result="effect1_dropShadow_163_347"/>
<feBlend mode="normal" in="SourceGraphic" in2="effect1_dropShadow_163_347" result="shape"/>
</filter>
</defs>
</svg>
