<svg width="95" height="132" viewBox="0 0 95 132" fill="none" xmlns="http://www.w3.org/2000/svg">
<path fill-rule="evenodd" clip-rule="evenodd" d="M33.3768 0V16.5H37.485V0H33.3768ZM59.6797 10.6296L46.909 21.0133L49.4944 24.2191L62.2651 13.8353L59.6797 10.6296ZM67.9164 38.4137L51.9047 34.7021L50.9805 38.7213L66.9922 42.433L67.9164 38.4137ZM3.86967 42.433L19.8813 38.7213L18.9572 34.7021L2.94552 38.4137L3.86967 42.433ZM8.59681 13.8353L21.3675 24.2191L23.9529 21.0133L11.1822 10.6296L8.59681 13.8353ZM60.075 127.875C77.0947 127.875 90.8918 113.086 90.8918 96.9375V81.4653V72.1944C90.8918 68.7733 88.1566 66 84.7295 66C81.3261 66 78.5672 68.7687 78.5672 72.1944V74.25H74.4589V63.9641C74.4589 60.5321 71.7237 57.75 68.2966 57.75C64.8933 57.75 62.1343 60.5201 62.1343 63.9641V70.125H58.0261V59.8391C58.0261 56.4071 55.2909 53.625 51.8638 53.625C48.4604 53.625 45.7015 56.3951 45.7015 59.8391V74.25H41.5933V30.9591C41.5933 27.5299 38.858 24.75 35.4309 24.75C32.0276 24.75 29.2686 27.5019 29.2686 30.9591V77.5499C20.8123 68.4732 9.67915 58.4889 5.11658 63.0948C0.650261 67.6036 12.1594 80.028 28.2308 107.18C35.472 119.414 44.6345 127.873 60.075 127.875ZM95 96.9375C95 116.302 79.3659 132 60.0802 132C47.2917 132 33.7951 126.008 24.5065 109.016C11.0994 84.4904 -6.04616 68.4057 2.11792 60.2083C7.95836 54.344 17.1282 59.9699 25.1604 67.513V30.9722C25.1604 25.2261 29.7587 20.625 35.4309 20.625C41.1427 20.625 45.7015 25.2576 45.7015 30.9722V51.5558C47.418 50.2644 49.5517 49.5 51.8638 49.5C56.311 49.5 60.0592 52.2946 61.5009 56.216C63.3117 54.6067 65.6908 53.625 68.2966 53.625C74.0084 53.625 78.5672 58.2377 78.5672 63.9277V63.9832C80.2837 62.6939 82.4174 61.9335 84.7295 61.9335C90.4413 61.9335 95 66.5508 95 72.2466V96.9375Z" fill="#D7D4A1"/>
<path d="M60.075 127.875C77.0947 127.875 90.8918 113.086 90.8918 96.9375V81.4653V72.1944C90.8918 68.7733 88.1566 66 84.7295 66C81.3261 66 78.5672 68.7687 78.5672 72.1944V74.25H74.4589V63.9641C74.4589 60.5321 71.7237 57.75 68.2966 57.75C64.8933 57.75 62.1343 60.5201 62.1343 63.9641V70.125H58.0261V59.8391C58.0261 56.4071 55.2909 53.625 51.8638 53.625C48.4604 53.625 45.7015 56.3951 45.7015 59.8391V74.25H41.5933V30.9591C41.5933 27.5299 38.858 24.75 35.4309 24.75C32.0276 24.75 29.2686 27.5019 29.2686 30.9591V77.5499C20.8123 68.4732 9.67915 58.4889 5.11658 63.0948C0.650261 67.6036 12.1594 80.028 28.2308 107.18C35.472 119.414 44.6345 127.873 60.075 127.875Z" fill="#D64933"/>
</svg>
